<?xml version="1.0" encoding="us-ascii" standalone="no"?><svg xmlns="http://www.w3.org/2000/svg" xmlns:xlink="http://www.w3.org/1999/xlink" contentStyleType="text/css" height="509px" preserveAspectRatio="none" style="width:1042px;height:509px;background:#FFFFFF;" version="1.1" viewBox="0 0 1042 509" width="1042px" zoomAndPan="magnify"><defs/><g><!--cluster Application--><g id="cluster_Application"><path d="M248.5,6.0137 L327.5,6.0137 A3.75,3.75 0 0 1 330,8.5137 L337,30.6348 L696.5,30.6348 A2.5,2.5 0 0 1 699,33.1348 L699,408.5137 A2.5,2.5 0 0 1 696.5,411.0137 L248.5,411.0137 A2.5,2.5 0 0 1 246,408.5137 L246,8.5137 A2.5,2.5 0 0 1 248.5,6.0137 " fill="none" style="stroke:#000000;stroke-width:1.5;"/><line style="stroke:#000000;stroke-width:1.5;" x1="246" x2="337" y1="30.6348" y2="30.6348"/><text fill="#000000" font-family="sans-serif" font-size="14" font-weight="bold" lengthAdjust="spacing" textLength="78" x="250" y="23.1211">Application</text></g><!--cluster Environments--><g id="cluster_Environments"><path d="M272.5,157.0137 L371.5,157.0137 A3.75,3.75 0 0 1 374,159.5137 L381,181.6348 L672.5,181.6348 A2.5,2.5 0 0 1 675,184.1348 L675,384.5137 A2.5,2.5 0 0 1 672.5,387.0137 L272.5,387.0137 A2.5,2.5 0 0 1 270,384.5137 L270,159.5137 A2.5,2.5 0 0 1 272.5,157.0137 " fill="none" style="stroke:#000000;stroke-width:1.5;"/><line style="stroke:#000000;stroke-width:1.5;" x1="270" x2="381" y1="181.6348" y2="181.6348"/><text fill="#000000" font-family="sans-serif" font-size="14" font-weight="bold" lengthAdjust="spacing" textLength="98" x="274" y="174.1211">Environments</text></g><!--entity Engine--><g id="elem_Engine"><rect fill="#F1F1F1" height="48.6211" rx="2.5" ry="2.5" style="stroke:#181818;stroke-width:0.5;" width="84" x="529" y="43.0137"/><rect fill="#F1F1F1" height="10" style="stroke:#181818;stroke-width:0.5;" width="15" x="593" y="48.0137"/><rect fill="#F1F1F1" height="2" style="stroke:#181818;stroke-width:0.5;" width="4" x="591" y="50.0137"/><rect fill="#F1F1F1" height="2" style="stroke:#181818;stroke-width:0.5;" width="4" x="591" y="54.0137"/><text fill="#000000" font-family="sans-serif" font-size="14" lengthAdjust="spacing" textLength="44" x="544" y="78.1211">Engine</text></g><!--entity System Environment--><g id="elem_System Environment"><rect fill="#F1F1F1" height="48.6211" rx="2.5" ry="2.5" style="stroke:#181818;stroke-width:0.5;" width="169" x="286.5" y="322.0137"/><rect fill="#F1F1F1" height="10" style="stroke:#181818;stroke-width:0.5;" width="15" x="435.5" y="327.0137"/><rect fill="#F1F1F1" height="2" style="stroke:#181818;stroke-width:0.5;" width="4" x="433.5" y="329.0137"/><rect fill="#F1F1F1" height="2" style="stroke:#181818;stroke-width:0.5;" width="4" x="433.5" y="333.0137"/><text fill="#000000" font-family="sans-serif" font-size="14" lengthAdjust="spacing" textLength="129" x="301.5" y="357.1211">System Environment</text></g><!--entity Public Environment--><g id="elem_Public Environment"><rect fill="#F1F1F1" height="48.6211" rx="2.5" ry="2.5" style="stroke:#181818;stroke-width:0.5;" width="161" x="286.5" y="194.0137"/><rect fill="#F1F1F1" height="10" style="stroke:#181818;stroke-width:0.5;" width="15" x="427.5" y="199.0137"/><rect fill="#F1F1F1" height="2" style="stroke:#181818;stroke-width:0.5;" width="4" x="425.5" y="201.0137"/><rect fill="#F1F1F1" height="2" style="stroke:#181818;stroke-width:0.5;" width="4" x="425.5" y="205.0137"/><text fill="#000000" font-family="sans-serif" font-size="14" lengthAdjust="spacing" textLength="121" x="301.5" y="229.1211">Public Environment</text></g><!--entity Request Environment--><g id="elem_Request Environment"><rect fill="#F1F1F1" height="48.6211" rx="2.5" ry="2.5" style="stroke:#181818;stroke-width:0.5;" width="176" x="483" y="194.0137"/><rect fill="#F1F1F1" height="10" style="stroke:#181818;stroke-width:0.5;" width="15" x="639" y="199.0137"/><rect fill="#F1F1F1" height="2" style="stroke:#181818;stroke-width:0.5;" width="4" x="637" y="201.0137"/><rect fill="#F1F1F1" height="2" style="stroke:#181818;stroke-width:0.5;" width="4" x="637" y="205.0137"/><text fill="#000000" font-family="sans-serif" font-size="14" lengthAdjust="spacing" textLength="136" x="498" y="229.1211">Request Environment</text></g><g id="elem_GMN8"><path d="M267.5,458.0137 L267.5,502.5957 A0,0 0 0 0 267.5,502.5957 L474.5,502.5957 A0,0 0 0 0 474.5,502.5957 L474.5,468.0137 L464.5,458.0137 L375,458.0137 L371,371.1137 L367,458.0137 L267.5,458.0137 A0,0 0 0 0 267.5,458.0137 " fill="#FEFFDD" style="stroke:#181818;stroke-width:0.5;"/><path d="M464.5,458.0137 L464.5,468.0137 L474.5,468.0137 L464.5,458.0137 " fill="#FEFFDD" style="stroke:#181818;stroke-width:0.5;"/><text fill="#000000" font-family="sans-serif" font-size="13" lengthAdjust="spacing" textLength="180" x="273.5" y="477.042">Defines dependencies available</text><text fill="#000000" font-family="sans-serif" font-size="13" lengthAdjust="spacing" textLength="186" x="273.5" y="494.333">to all components of the system</text></g><g id="elem_GMN11"><path d="M6,196.0137 L6,240.5957 A0,0 0 0 0 6,240.5957 L230,240.5957 A0,0 0 0 0 230,240.5957 L230,222.5137 L286.39,218.5137 L230,214.5137 L230,206.0137 L220,196.0137 L6,196.0137 A0,0 0 0 0 6,196.0137 " fill="#FEFFDD" style="stroke:#181818;stroke-width:0.5;"/><path d="M220,196.0137 L220,206.0137 L230,206.0137 L220,196.0137 " fill="#FEFFDD" style="stroke:#181818;stroke-width:0.5;"/><text fill="#000000" font-family="sans-serif" font-size="13" lengthAdjust="spacing" textLength="203" x="12" y="215.042">Defines services and dependencies</text><text fill="#000000" font-family="sans-serif" font-size="13" lengthAdjust="spacing" textLength="130" x="12" y="232.333">available for public use</text></g><g id="elem_GMN14"><path d="M715,196.0137 L715,214.5137 L659.17,218.5137 L715,222.5137 L715,240.5957 A0,0 0 0 0 715,240.5957 L1035,240.5957 A0,0 0 0 0 1035,240.5957 L1035,206.0137 L1025,196.0137 L715,196.0137 A0,0 0 0 0 715,196.0137 " fill="#FEFFDD" style="stroke:#181818;stroke-width:0.5;"/><path d="M1025,196.0137 L1025,206.0137 L1035,206.0137 L1025,196.0137 " fill="#FEFFDD" style="stroke:#181818;stroke-width:0.5;"/><text fill="#000000" font-family="sans-serif" font-size="13" lengthAdjust="spacing" textLength="299" x="721" y="215.042">Lives in memory only for the duration of the request.</text><text fill="#000000" font-family="sans-serif" font-size="13" lengthAdjust="spacing" textLength="179" x="721" y="232.333">Contains request-specific data.</text></g><!--entity External Systems--><g id="elem_External Systems"><rect fill="#F1F1F1" height="48.6211" rx="2.5" ry="2.5" style="stroke:#181818;stroke-width:0.5;" width="148" x="715" y="43.0137"/><rect fill="#F1F1F1" height="10" style="stroke:#181818;stroke-width:0.5;" width="15" x="843" y="48.0137"/><rect fill="#F1F1F1" height="2" style="stroke:#181818;stroke-width:0.5;" width="4" x="841" y="50.0137"/><rect fill="#F1F1F1" height="2" style="stroke:#181818;stroke-width:0.5;" width="4" x="841" y="54.0137"/><text fill="#000000" font-family="sans-serif" font-size="14" lengthAdjust="spacing" textLength="108" x="730" y="78.1211">External Systems</text></g><!--link Engine to External Systems--><g id="link_Engine_External Systems"><path d="M619.03,67.5137 C647.86,67.5137 674.89,67.5137 708.87,67.5137 " fill="none" id="Engine-External Systems" style="stroke:#181818;stroke-width:1.0;stroke-dasharray:7.0,7.0;"/><polygon fill="#181818" points="613.03,67.5137,622.03,71.5137,618.03,67.5137,622.03,63.5137,613.03,67.5137" style="stroke:#181818;stroke-width:1.0;"/><polygon fill="#181818" points="714.87,67.5137,705.87,63.5137,709.87,67.5137,705.87,71.5137,714.87,67.5137" style="stroke:#181818;stroke-width:1.0;"/><text fill="#000000" font-family="sans-serif" font-size="13" lengthAdjust="spacing" textLength="60" x="634" y="60.542">Interaction</text></g><!--link Engine to Public Environment--><g id="link_Engine_Public Environment"><path d="M528.87,82.7237 C505.28,91.8437 476.05,105.1437 453,122.0137 C425.27,142.3037 403.4,167.9587 387.49,188.9887 " fill="none" id="Engine-to-Public Environment" style="stroke:#181818;stroke-width:1.0;"/><polygon fill="#181818" points="383.87,193.7737,392.4899,189.0096,386.8867,189.7862,386.11,184.1829,383.87,193.7737" style="stroke:#181818;stroke-width:1.0;"/><text fill="#000000" font-family="sans-serif" font-size="13" lengthAdjust="spacing" textLength="108" x="454" y="137.042">Using components</text></g><!--link Engine to Request Environment--><g id="link_Engine_Request Environment"><path d="M571,92.1237 C571,119.8637 571,159.6237 571,187.5237 " fill="none" id="Engine-to-Request Environment" style="stroke:#181818;stroke-width:1.0;stroke-dasharray:7.0,7.0;"/><polygon fill="#181818" points="571,193.5237,575,184.5237,571,188.5237,567,184.5237,571,193.5237" style="stroke:#181818;stroke-width:1.0;"/><text fill="#000000" font-family="sans-serif" font-size="13" lengthAdjust="spacing" textLength="77" x="572" y="137.042">Request data</text></g><!--link Public Environment to System Environment--><g id="link_Public Environment_System Environment"><path d="M367.75,243.2137 C368.47,265.7437 369.3507,293.4367 370.0607,315.9267 " fill="none" id="Public Environment-to-System Environment" style="stroke:#181818;stroke-width:1.0;"/><polygon fill="#181818" points="370.25,321.9237,373.964,312.8019,370.0922,316.9262,365.968,313.0544,370.25,321.9237" style="stroke:#181818;stroke-width:1.0;"/><text fill="#000000" font-family="sans-serif" font-size="13" lengthAdjust="spacing" textLength="63" x="370" y="288.042">Inheritance</text></g><!--SRC=[TP7FJiCm3CRlUGfhz_O149g4O0Sa3WZ42UsGfMuNaJeXSIicj7SdIGch8EGM__b-dsqdrPiS43OtpXcj96jB6_WK4D_hZWPDk1VvvqhbZcRjBOr874ffBdy-1SOHLldz9Vau7QB-FyadV9ymyD_iMPo58Ci81yjiHx1zdNE7VRGQe4E7r24f7Jzobjh8Wq715gGneEpeB2NZIOYF225hYTW32VCDCzXpHjLS5rH0FskLCB5vpHK_NEYj1xTeJ05_OxmUZWkdke07FKTrJJ3YQFq9B9bJLap6kyddOvL1_ABGYbjBB3M54cc2GwNxwA2JBDkLXt9Vk6wtyTWVZ9waWMMzOGzNS4yn9bNYNAgRPbjTJAn_2Pg6rPOlJMr2rAQCNIMS_8cgSaPMpfuj7j5hbgHGV040]--></g></svg>